<svg width="1219" height="362" viewBox="0 0 1219 362" fill="none" xmlns="http://www.w3.org/2000/svg">
<path d="M68.8751 233.192C46.5598 233.192 35.0422 224.18 33.8041 206.126H0C0.978994 243.213 23.7838 261.986 68.8751 261.986C112.066 261.986 134.468 245.459 136.483 212.144C137.482 190.606 128.469 176.583 109.446 170.076C96.1428 165.427 82.5997 161.496 68.8751 158.299C46.5598 153.289 35.6757 145.515 35.6757 134.746C36.4531 121.731 45.4657 114.964 63.4907 114.734C78.262 114.734 88.5414 119.485 94.3002 129.131C95.5725 132.173 97.7363 134.759 100.507 136.547C103.277 138.336 106.524 139.244 109.82 139.151H129.371C127.356 103.85 106.566 86.3144 66.4852 86.3144C24.4173 86.0552 3.13855 103.591 2.3899 139.41C2.3899 161.956 18.9176 177.476 52.2322 185.999C64.4984 189.253 76.016 192.247 86.0363 195.242C96.5461 198.265 101.556 203.88 101.556 212.029C101.815 226.051 91.0465 233.077 68.7599 233.077L68.8751 233.192Z" fill="#23A6E0"/>
<path d="M249.701 191.615V259.482H282.756V182.602C283.754 153.808 274.991 136.023 256.467 129.247C231.676 120.609 210.887 125.993 193.869 145.516V105.953C193.869 94.9536 188.341 89.166 177.313 89.166H160.555V259.482H193.869V191.615C193.869 171.459 202.364 154.787 222.145 154.787C241.178 154.787 249.701 169.328 249.701 191.615Z" fill="#23A6E0"/>
<path d="M353.562 234.948C343.052 234.948 337.524 229.937 336.775 219.399C336.775 209.638 343.541 203.389 356.931 200.884C366.019 199.07 374.909 196.379 383.479 192.851V205.146C383.479 223.919 372.22 234.948 353.677 234.948H353.562ZM361.336 152.28C375.1 152.28 382.097 156.052 382.874 163.567C382.874 170.823 375.589 175.085 361.336 176.841C327.762 180.095 304.727 188.618 303.979 220.407C303.979 249.719 326.006 264.49 357.823 261.985C393.643 259.48 415.67 243.211 415.67 206.643V161.552C414.922 137.019 396.378 124.983 359.81 124.983C329.26 124.983 311.983 137.019 307.981 161.552H341.295C343.052 155.303 349.559 152.28 361.451 152.28H361.336Z" fill="#23A6E0"/>
<path d="M438.79 259.481H472.594V190.606C472.594 171.314 481.866 161.553 500.409 161.553H511.668V127H506.917C462.574 127 439.798 148.279 438.79 191.124V259.481Z" fill="#23A6E0"/>
<path d="M651.233 218.912H626.701C624.59 218.829 622.488 219.212 620.542 220.033C618.597 220.854 616.855 222.093 615.442 223.663C609.81 229.569 602.063 232.997 593.904 233.193C577.607 233.193 568.854 222.914 567.587 202.643H653.249C655.754 150.814 635.972 124.899 593.904 124.899C553.593 125.159 533.293 147.704 533.293 192.767C533.293 237.829 553.305 261.152 593.386 262.419C625.952 262.506 643.977 246.957 651.233 218.912ZM593.386 152.282C607.783 152.282 615.932 161.295 617.947 178.83H568.105C570.61 161.295 579.104 152.282 593.386 152.282Z" fill="#23A6E0"/>
<path d="M793.36 0.076817C782.824 0.386308 772.795 4.67555 765.293 12.0813C757.791 19.487 753.373 29.4595 752.928 39.9915C752.483 50.5235 756.044 60.8333 762.894 68.8457C769.744 76.8582 779.374 81.9785 789.848 83.1761C817.058 101.345 822.557 121.818 822.586 138.259C812.725 150.566 806.805 165.56 805.598 181.284C804.391 197.007 807.953 212.73 815.82 226.397C818.6 231.169 821.871 235.637 825.581 239.729C817.403 250.296 803.985 260.259 782.534 267.515C775.025 266.425 767.362 267.285 760.281 270.013C753.2 272.74 746.941 277.243 742.104 283.09C737.267 288.936 734.015 295.928 732.661 303.394C731.308 310.86 731.898 318.549 734.375 325.721C736.852 332.893 741.132 339.307 746.805 344.347C752.477 349.387 759.35 352.882 766.764 354.497C774.178 356.113 781.883 355.793 789.138 353.57C796.392 351.347 802.953 347.295 808.189 341.803C813.685 336.033 817.522 328.887 819.296 321.118C821.069 313.349 820.714 305.246 818.267 297.662C823.95 281.416 834.408 267.265 848.27 257.063C857.771 261.889 868.155 264.727 878.789 265.405C889.423 266.084 900.083 264.587 910.12 261.008C923.163 269.646 935.689 283.006 940.037 300.369C936.025 309.172 935.057 319.061 937.287 328.475C939.517 337.889 944.816 346.293 952.351 352.362C959.885 358.431 969.225 361.819 978.898 361.993C988.571 362.167 998.026 359.116 1005.77 353.321V353.321C1013.17 347.794 1018.63 340.056 1021.34 331.227C1024.05 322.398 1023.89 312.934 1020.87 304.205C1017.85 295.476 1012.13 287.933 1004.54 282.668C996.951 277.402 987.883 274.687 978.649 274.915C957.227 264.434 948.473 250.066 944.673 236.302C954.606 223.991 960.584 208.963 961.822 193.192C963.061 177.422 959.502 161.645 951.612 147.934C947.954 141.68 943.459 135.954 938.251 130.917C940.325 117.441 945.104 98.7537 963.792 85.3069C972.157 84.2129 979.94 80.4312 985.97 74.5311C992 68.6309 995.95 60.9317 997.225 52.5925C998.501 44.2532 997.033 35.7252 993.043 28.2924C989.052 20.8596 982.755 14.9241 975.1 11.3795C967.444 7.83502 958.845 6.87331 950.595 8.63908C942.346 10.4048 934.893 14.8026 929.36 21.1703C923.826 27.5379 920.51 35.5309 919.912 43.9459C919.314 52.361 921.465 60.7426 926.043 67.829C923.595 85.5948 911.416 100.74 901.51 110.847C887.352 107.495 872.538 108.184 858.751 112.834C845.506 103.332 831.771 86.0268 829.756 64.2297C833.853 57.835 836.127 50.4432 836.332 42.8514C836.538 35.2596 834.667 27.7557 830.922 21.1486C827.177 14.5416 821.7 9.0821 815.081 5.35864C808.461 1.63517 800.951 -0.211014 793.36 0.0191729V0.076817ZM794.57 6.61301C802.386 6.58955 809.988 9.17174 816.173 13.9515C822.358 18.7312 826.774 25.4359 828.723 33.0059C830.671 40.5758 830.042 48.5793 826.933 55.7514C823.825 62.9235 818.415 68.8551 811.558 72.6088V72.6088C806.857 75.2018 801.626 76.6848 796.264 76.9443C790.901 77.2038 785.551 76.2329 780.622 74.1059C775.693 71.9789 771.316 68.7522 767.826 64.6729C764.336 60.5935 761.826 55.7698 760.487 50.5708C759.149 45.3718 759.018 39.9356 760.105 34.6782C761.191 29.4209 763.466 24.4819 766.756 20.2393C770.045 15.9967 774.262 12.563 779.083 10.2012C783.904 7.83936 789.201 6.61195 794.57 6.61301ZM958.436 13.8691C964.141 13.8059 969.765 15.2284 974.754 17.9965C979.743 20.7646 983.926 24.7832 986.891 29.6573C989.857 34.5314 991.503 40.0933 991.669 45.7964C991.834 51.4995 990.513 57.1476 987.835 62.1854C985.81 65.9987 983.053 69.3754 979.722 72.1226C976.391 74.8698 972.552 76.9334 968.423 78.1956C964.294 79.4578 959.957 79.8939 955.659 79.4787C951.361 79.0636 947.188 77.8053 943.377 75.776V75.776C936.931 72.345 931.811 66.8661 928.823 60.2032C925.835 53.5402 925.151 46.0724 926.877 38.9772C928.603 31.882 932.641 25.5632 938.355 21.017C944.07 16.4709 951.134 13.956 958.436 13.8691V13.8691ZM693.359 89.1653C688.624 89.3083 684.133 91.3041 680.854 94.7233C677.575 98.1426 675.769 102.712 675.823 107.449V259.482H710.635V198.87H753.826C787.89 198.87 806.174 177.591 806.174 144.018C806.174 108.457 787.4 89.1653 751.321 89.1653H693.359ZM971.134 89.1653V115.224H1004.45V105.463C1004.68 94.6938 999.439 89.1653 988.411 89.1653H971.134ZM1165.67 89.1653V233.941C1165.41 248.713 1171.42 256.487 1183.95 257.725C1195.6 258.944 1207.33 259.03 1218.99 257.984V232.674H1208.74C1202.23 232.674 1198.98 229.795 1198.98 224.036V150.784H1202.46C1204.65 150.831 1206.82 150.436 1208.85 149.622C1210.87 148.808 1212.71 147.593 1214.26 146.048C1215.8 144.504 1217.02 142.663 1217.83 140.637C1218.64 138.61 1219.04 136.44 1218.99 134.257V127.001H1198.95V105.952C1198.94 101.631 1197.27 97.4787 1194.29 94.3542C1191.3 91.2298 1187.23 89.3721 1182.91 89.1653H1165.67ZM711.125 118.737H746.714C762.983 118.737 771.247 127.001 771.247 143.528C771.247 160.056 762.608 168.32 744.958 168.061H711.125V118.737ZM1087.35 124.985C1049.51 124.985 1030.48 143.787 1030.48 181.594V259.482H1064.28V174.798C1064.54 161.035 1072.06 154.268 1086.83 154.268C1101.6 154.268 1109.11 161.035 1109.86 174.798V242.925C1109.86 253.435 1115.39 258.704 1126.42 259.453H1143.44V181.594C1143.7 143.787 1125.15 124.985 1087.35 124.985ZM971.134 127.001V259.453H1004.45V143.125C1004.45 132.356 999.179 127.116 988.411 127.116L971.134 127.001ZM882.564 138.086C893.464 137.842 904.136 141.231 912.898 147.719C921.66 154.207 928.015 163.426 930.961 173.923C933.907 184.421 933.277 195.6 929.17 205.7C925.063 215.799 917.713 224.246 908.277 229.709C901.794 233.462 894.539 235.682 887.066 236.201C879.594 236.72 872.101 235.522 865.162 232.701C858.223 229.879 852.021 225.508 847.031 219.922C842.041 214.335 838.394 207.681 836.37 200.469C834.346 193.257 833.998 185.678 835.353 178.311C836.708 170.943 839.73 163.984 844.188 157.964C848.646 151.944 854.421 147.023 861.072 143.578C867.724 140.133 875.075 138.254 882.564 138.086V138.086ZM774.673 273.965C782.073 273.731 789.375 275.696 795.658 279.612C801.94 283.529 806.92 289.22 809.969 295.966C813.017 302.713 813.996 310.212 812.782 317.515C811.568 324.818 808.217 331.597 803.15 336.995V336.995C796.307 344.129 786.919 348.266 777.036 348.503C767.153 348.741 757.578 345.059 750.4 338.262V338.262C745.147 333.181 741.497 326.675 739.898 319.545C738.3 312.414 738.823 304.972 741.404 298.135C743.985 291.299 748.51 285.368 754.422 281.072C760.334 276.777 767.374 274.307 774.673 273.965V273.965ZM978.131 281.768C986.917 281.394 995.545 284.184 1002.45 289.631C1009.35 295.077 1014.07 302.819 1015.75 311.451C1017.44 320.082 1015.97 329.03 1011.61 336.669C1007.26 344.309 1000.31 350.134 992.024 353.085C983.741 356.037 974.674 355.92 966.47 352.755C958.265 349.591 951.468 343.589 947.312 335.839C943.157 328.09 941.918 319.107 943.822 310.522C945.726 301.937 950.645 294.319 957.687 289.053C963.617 284.629 970.74 282.091 978.131 281.768Z" fill="#82CE3F"/>
<path d="M968.224 29.0145C970.783 30.1164 973.086 31.7369 974.987 33.7736C976.888 35.8103 978.346 38.2191 979.269 40.8477C980.192 43.4763 980.56 46.2678 980.35 49.0459C980.14 51.824 979.357 54.5284 978.049 56.9884C976.741 59.4484 974.937 61.6105 972.752 63.3383C970.566 65.0661 968.046 66.3221 965.351 67.0268C962.655 67.7316 959.843 67.8699 957.092 67.4331C954.34 66.9962 951.709 65.9936 949.364 64.4886V64.4886C944.68 61.972 941.179 57.706 939.626 52.6201C938.073 47.5342 938.592 42.0405 941.072 37.336C943.583 32.6463 947.847 29.1398 952.933 27.581C958.02 26.0222 963.516 26.5375 968.224 29.0145V29.0145Z" fill="#82BF3F"/>
<path d="M784.319 22.9394C779.321 25.6771 775.615 30.2883 774.017 35.7584C772.418 41.2285 773.059 47.1095 775.796 52.1077C778.534 57.1059 783.145 60.8117 788.615 62.4101C794.085 64.0085 799.966 63.3684 804.965 60.6307C809.961 57.8838 813.663 53.2654 815.255 47.7905C816.848 42.3155 816.202 36.4322 813.459 31.4336C810.712 26.4523 806.104 22.7619 800.643 21.17C795.182 19.5781 789.312 20.2143 784.319 22.9394V22.9394Z" fill="#82BF3F"/>
<path d="M760.419 327.751C756.177 323.55 753.752 317.853 753.665 311.883C753.577 305.914 755.834 300.148 759.95 295.824C764.067 291.501 769.715 288.963 775.681 288.758C781.648 288.552 787.457 290.694 791.861 294.724V294.724C794.032 296.786 795.774 299.255 796.989 301.991C798.205 304.727 798.869 307.675 798.944 310.667C799.018 313.66 798.503 316.638 797.426 319.431C796.349 322.224 794.732 324.777 792.668 326.945V326.945C790.602 329.114 788.128 330.855 785.389 332.068C782.65 333.281 779.699 333.943 776.704 334.015C773.709 334.087 770.73 333.568 767.935 332.489C765.141 331.409 762.587 329.789 760.419 327.722V327.751Z" fill="#82BF3F"/>
<path d="M993.104 336.477C995.541 334.739 997.605 332.533 999.176 329.987C1000.75 327.44 1001.79 324.606 1002.26 321.649C1002.72 318.693 1002.58 315.674 1001.86 312.771C1001.14 309.867 999.842 307.137 998.051 304.741C996.259 302.344 994.006 300.33 991.425 298.817C988.844 297.303 985.986 296.321 983.02 295.927C980.054 295.533 977.039 295.736 974.153 296.523C971.266 297.311 968.566 298.667 966.211 300.513C963.85 302.278 961.86 304.491 960.355 307.025C958.85 309.559 957.859 312.366 957.44 315.283C957.02 318.201 957.179 321.172 957.908 324.028C958.638 326.884 959.923 329.568 961.69 331.927C963.453 334.29 965.664 336.282 968.198 337.79C970.731 339.298 973.537 340.291 976.454 340.714C979.372 341.136 982.344 340.98 985.201 340.253C988.058 339.525 990.744 338.242 993.104 336.477V336.477Z" fill="#82BF3F"/>
<path d="M19.0459 351V292.195H31.3857C37.3018 292.195 41.9736 292.779 45.4014 293.947C49.083 295.09 52.4219 297.032 55.418 299.774C61.4863 305.31 64.5205 312.584 64.5205 321.598C64.5205 330.637 61.3594 337.949 55.0371 343.535C51.8633 346.328 48.5371 348.271 45.0586 349.362C41.8086 350.454 37.2002 351 31.2334 351H19.0459ZM27.9199 342.659H31.9189C35.9053 342.659 39.2188 342.24 41.8594 341.402C44.5 340.514 46.8867 339.104 49.0195 337.175C53.3867 333.188 55.5703 327.996 55.5703 321.598C55.5703 315.148 53.4121 309.918 49.0957 305.906C45.2109 302.326 39.4854 300.536 31.9189 300.536H27.9199V342.659Z" fill="#23A6E0"/>
<path d="M154.308 300.536H130.732V314.666H153.622V323.007H130.732V342.659H154.308V351H121.858V292.195H154.308V300.536Z" fill="#23A6E0"/>
<path d="M247.352 300.955L240.153 305.221C238.808 302.885 237.525 301.361 236.307 300.65C235.037 299.838 233.399 299.432 231.394 299.432C228.931 299.432 226.887 300.13 225.262 301.526C223.637 302.897 222.824 304.624 222.824 306.706C222.824 309.575 224.957 311.886 229.223 313.638L235.088 316.037C239.861 317.967 243.353 320.328 245.562 323.121C247.771 325.889 248.875 329.291 248.875 333.328C248.875 338.736 247.072 343.205 243.467 346.734C239.836 350.289 235.329 352.066 229.946 352.066C224.843 352.066 220.628 350.556 217.302 347.534C214.026 344.513 211.982 340.26 211.17 334.775L220.158 332.795C220.564 336.248 221.275 338.635 222.291 339.955C224.119 342.494 226.785 343.764 230.289 343.764C233.057 343.764 235.354 342.837 237.183 340.983C239.011 339.13 239.925 336.781 239.925 333.938C239.925 332.795 239.76 331.754 239.43 330.814C239.125 329.85 238.63 328.974 237.944 328.187C237.284 327.374 236.421 326.625 235.354 325.939C234.288 325.229 233.019 324.556 231.546 323.921L225.871 321.56C217.822 318.157 213.798 313.181 213.798 306.63C213.798 302.212 215.486 298.518 218.863 295.547C222.24 292.551 226.442 291.053 231.47 291.053C238.249 291.053 243.543 294.354 247.352 300.955Z" fill="#23A6E0"/>
<path d="M314.592 292.195V351H305.718V292.195H314.592Z" fill="#23A6E0"/>
<path d="M405.103 320.379H429.401V322.321C429.401 326.739 428.881 330.649 427.84 334.052C426.824 337.2 425.11 340.146 422.698 342.888C417.239 349.032 410.295 352.104 401.865 352.104C393.639 352.104 386.593 349.134 380.728 343.192C374.862 337.226 371.93 330.065 371.93 321.712C371.93 313.181 374.913 305.944 380.88 300.003C386.847 294.036 394.108 291.053 402.665 291.053C407.261 291.053 411.552 291.992 415.538 293.871C419.347 295.75 423.092 298.797 426.773 303.012L420.451 309.067C415.627 302.644 409.749 299.432 402.817 299.432C396.597 299.432 391.379 301.577 387.164 305.868C382.949 310.083 380.842 315.364 380.842 321.712C380.842 328.263 383.19 333.658 387.888 337.898C392.28 341.834 397.041 343.802 402.17 343.802C406.537 343.802 410.46 342.329 413.938 339.384C417.417 336.413 419.359 332.858 419.766 328.72H405.103V320.379Z" fill="#23A6E0"/>
<path d="M486.739 351V288.196L529.624 333.062V292.195H538.498V354.58L495.613 309.829V351H486.739Z" fill="#23A6E0"/>
<path d="M630.018 300.955L622.819 305.221C621.474 302.885 620.191 301.361 618.973 300.65C617.703 299.838 616.065 299.432 614.06 299.432C611.597 299.432 609.553 300.13 607.928 301.526C606.303 302.897 605.49 304.624 605.49 306.706C605.49 309.575 607.623 311.886 611.889 313.638L617.754 316.037C622.527 317.967 626.019 320.328 628.228 323.121C630.437 325.889 631.541 329.291 631.541 333.328C631.541 338.736 629.738 343.205 626.133 346.734C622.502 350.289 617.995 352.066 612.612 352.066C607.509 352.066 603.294 350.556 599.968 347.534C596.692 344.513 594.648 340.26 593.836 334.775L602.824 332.795C603.23 336.248 603.941 338.635 604.957 339.955C606.785 342.494 609.451 343.764 612.955 343.764C615.723 343.764 618.021 342.837 619.849 340.983C621.677 339.13 622.591 336.781 622.591 333.938C622.591 332.795 622.426 331.754 622.096 330.814C621.791 329.85 621.296 328.974 620.61 328.187C619.95 327.374 619.087 326.625 618.021 325.939C616.954 325.229 615.685 324.556 614.212 323.921L608.537 321.56C600.488 318.157 596.464 313.181 596.464 306.63C596.464 302.212 598.152 298.518 601.529 295.547C604.906 292.551 609.108 291.053 614.136 291.053C620.915 291.053 626.209 294.354 630.018 300.955Z" fill="#23A6E0"/>
</svg>
